<mxfile host="app.diagrams.net" modified="2021-12-24T07:25:34.529Z" agent="5.0 (Windows)" etag="KLlJ_REw2DxLB3c0IZdp" version="16.0.3" type="github">
  <diagram id="fmBed9yC12DzOdZ8k0Av" name="Page-1">
    <mxGraphModel dx="1422" dy="780" grid="1" gridSize="10" guides="1" tooltips="1" connect="1" arrows="1" fold="1" page="1" pageScale="1" pageWidth="850" pageHeight="1100" math="0" shadow="0">
      <root>
        <mxCell id="0" />
        <mxCell id="1" parent="0" />
        <UserObject label="Design" lucidchartObjectId="yYEDbucBIvRk" id="kyKSu3ex7JQ9LC0qElmS-1">
          <mxCell style="html=1;overflow=block;blockSpacing=1;whiteSpace=wrap;fontSize=16.7;fontFamily=Kirsty;fontColor=#333333;spacing=3.8;strokeColor=none;strokeOpacity=100;fillColor=#C1E4F7;strokeWidth=0;" vertex="1" parent="1">
            <mxGeometry x="252" y="180" width="164" height="90" as="geometry" />
          </mxCell>
        </UserObject>
        <UserObject label="Develop" lucidchartObjectId="JYEDfViqM13D" id="kyKSu3ex7JQ9LC0qElmS-2">
          <mxCell style="html=1;overflow=block;blockSpacing=1;whiteSpace=wrap;fontSize=16.7;fontFamily=Kirsty;fontColor=#333333;spacing=3.8;strokeColor=none;strokeOpacity=100;fillColor=#C1E4F7;strokeWidth=0;" vertex="1" parent="1">
            <mxGeometry x="600" y="180" width="164" height="90" as="geometry" />
          </mxCell>
        </UserObject>
        <UserObject label="Build" lucidchartObjectId="NYEDQmSi-ZtL" id="kyKSu3ex7JQ9LC0qElmS-3">
          <mxCell style="html=1;overflow=block;blockSpacing=1;whiteSpace=wrap;fontSize=16.7;fontFamily=Kirsty;fontColor=#333333;spacing=3.8;strokeColor=none;strokeOpacity=100;fillColor=#C1E4F7;strokeWidth=0;" vertex="1" parent="1">
            <mxGeometry x="948" y="180" width="164" height="90" as="geometry" />
          </mxCell>
        </UserObject>
        <UserObject label="DevSecOps" lucidchartObjectId="y2EDNRe27s9H" id="kyKSu3ex7JQ9LC0qElmS-4">
          <mxCell style="html=1;overflow=block;blockSpacing=1;whiteSpace=wrap;fontSize=63.3;fontFamily=Kirsty;fontColor=#333333;spacing=3.8;strokeOpacity=0;fillOpacity=0;rounded=1;absoluteArcSize=1;arcSize=9;fillColor=#ffffff;strokeWidth=2.3;" vertex="1" parent="1">
            <mxGeometry x="498" y="375" width="180" height="72" as="geometry" />
          </mxCell>
        </UserObject>
        <UserObject label="https://github.com/Lino-DC/DevSecOps" lucidchartObjectId="b3ED~2ONJY6u" id="kyKSu3ex7JQ9LC0qElmS-5">
          <mxCell style="html=1;overflow=block;blockSpacing=1;whiteSpace=wrap;fontSize=16.7;fontColor=#333333;spacing=3.8;strokeOpacity=0;fillOpacity=0;rounded=1;absoluteArcSize=1;arcSize=9;fillColor=#ffffff;strokeWidth=2.3;" vertex="1" parent="1">
            <mxGeometry x="592" y="447" width="180" height="45" as="geometry" />
          </mxCell>
        </UserObject>
        <UserObject label="" lucidchartObjectId=".dFDtO2lIcVF" id="kyKSu3ex7JQ9LC0qElmS-6">
          <mxCell style="html=1;overflow=block;blockSpacing=1;whiteSpace=wrap;shape=image;fontSize=13;spacing=0;strokeColor=none;strokeOpacity=100;strokeWidth=0;image=https://images.lucid.app/images/08122955-3594-436e-b6fd-aa01a4630048/content;imageAspect=0;" vertex="1" parent="1">
            <mxGeometry x="755" y="382" width="150" height="59" as="geometry" />
          </mxCell>
        </UserObject>
        <UserObject label="&lt;ul style=&quot;margin: 0px; padding-left: 10px;list-style-position: inside; list-style-type:disc&quot;&gt;&lt;li style=&quot;text-align:left;color:#000000;font-size:13px;&quot;&gt;&lt;span style=&quot;margin-left: 0px;margin-top: -2px;&quot;&gt;&lt;span style=&quot;font-size:13px;color:#000000;&quot;&gt;&lt;span style=&quot;font-size:13px;color:#000000;&quot;&gt;The goal is to incorporate security&lt;/span&gt;&lt;span style=&quot;font-size:13px;color:#000000;font-weight: bold;&quot;&gt;into all stages&lt;/span&gt;of the software development workflow. Therefore the software and business should consider the security elements.&lt;/span&gt;&lt;/span&gt;&lt;/li&gt;&lt;/ul&gt;" lucidchartObjectId="epFD1mUjboHE" id="kyKSu3ex7JQ9LC0qElmS-7">
          <mxCell style="html=1;overflow=block;blockSpacing=1;whiteSpace=wrap;fontSize=13;spacing=3.8;strokeOpacity=0;fillOpacity=0;rounded=1;absoluteArcSize=1;arcSize=9;fillColor=#ffffff;strokeWidth=2.3;" vertex="1" parent="1">
            <mxGeometry x="135" y="270" width="345" height="75" as="geometry" />
          </mxCell>
        </UserObject>
        <UserObject label="&lt;ul style=&quot;margin: 0px; padding-left: 10px;list-style-position: inside; list-style-type:disc&quot;&gt;&lt;li style=&quot;text-align:left;color:#000000;font-size:13px;&quot;&gt;&lt;span style=&quot;margin-left: 0px;margin-top: -2px;&quot;&gt;&lt;span style=&quot;font-size:13px;color:#000000;&quot;&gt;The obvious importance of secure coding is the ability to develop software that has a high resistance to vulnerabilities.&lt;/span&gt;&lt;span style=&quot;font-size:13.3px;color:#333333;&quot;&gt;Following secure coding guides is highly recommended at the developement stage.&lt;/span&gt;&lt;/span&gt;&lt;/li&gt;&lt;/ul&gt;" lucidchartObjectId="HsFDZABD9ItC" id="kyKSu3ex7JQ9LC0qElmS-8">
          <mxCell style="html=1;overflow=block;blockSpacing=1;whiteSpace=wrap;fontSize=13;spacing=3.8;strokeOpacity=0;fillOpacity=0;rounded=1;absoluteArcSize=1;arcSize=9;fillColor=#ffffff;strokeWidth=2.3;" vertex="1" parent="1">
            <mxGeometry x="509" y="270" width="376" height="90" as="geometry" />
          </mxCell>
        </UserObject>
        <UserObject label="&lt;ul style=&quot;margin: 0px; padding-left: 10px;list-style-position: inside; list-style-type:disc&quot;&gt;&lt;li style=&quot;text-align:left;color:#333333;font-size:13.3px;&quot;&gt;&lt;span style=&quot;margin-left: 0px;margin-top: -2px;&quot;&gt;&lt;span style=&quot;font-size:13.3px;color:#333333;&quot;&gt;When building,&lt;/span&gt;&lt;span style=&quot;font-size:13px;color:#000000;&quot;&gt;automated build tools do the trick. Build automation tools bring in a variety of powerful features&lt;/span&gt;&lt;span style=&quot;font-size:13.3px;color:#333333;&quot;&gt;which is a great way to identify vulnerabilities and security threats.&lt;/span&gt;&lt;/span&gt;&lt;/li&gt;&lt;/ul&gt;" lucidchartObjectId="tCFDEvQg62F2" id="kyKSu3ex7JQ9LC0qElmS-9">
          <mxCell style="html=1;overflow=block;blockSpacing=1;whiteSpace=wrap;fontSize=13;spacing=3.8;strokeOpacity=0;fillOpacity=0;rounded=1;absoluteArcSize=1;arcSize=9;fillColor=#ffffff;strokeWidth=2.3;" vertex="1" parent="1">
            <mxGeometry x="885" y="255" width="315" height="119" as="geometry" />
          </mxCell>
        </UserObject>
        <UserObject label="Operations" lucidchartObjectId="RYEDo-u4etMY" id="kyKSu3ex7JQ9LC0qElmS-10">
          <mxCell style="html=1;overflow=block;blockSpacing=1;whiteSpace=wrap;fontSize=13;fontFamily=Kirsty;fontColor=#333333;fontStyle=1;spacing=3.8;verticalAlign=middle;strokeColor=none;strokeOpacity=100;fillColor=#C1E4F7;strokeWidth=0;" vertex="1" parent="1">
            <mxGeometry x="252" y="570" width="164" height="90" as="geometry" />
          </mxCell>
        </UserObject>
        <UserObject label="Deploy" lucidchartObjectId="VYEDU2DpQCa." id="kyKSu3ex7JQ9LC0qElmS-11">
          <mxCell style="html=1;overflow=block;blockSpacing=1;whiteSpace=wrap;fontSize=16.7;fontFamily=Kirsty;fontColor=#333333;spacing=3.8;strokeColor=none;strokeOpacity=100;fillColor=#C1E4F7;strokeWidth=0;" vertex="1" parent="1">
            <mxGeometry x="600" y="570" width="164" height="90" as="geometry" />
          </mxCell>
        </UserObject>
        <UserObject label="Test" lucidchartObjectId="YYEDh9Ynp2yp" id="kyKSu3ex7JQ9LC0qElmS-12">
          <mxCell style="html=1;overflow=block;blockSpacing=1;whiteSpace=wrap;fontSize=16.7;fontFamily=Kirsty;fontColor=#333333;spacing=3.8;strokeColor=none;strokeOpacity=100;fillColor=#C1E4F7;strokeWidth=0;" vertex="1" parent="1">
            <mxGeometry x="948" y="570" width="164" height="90" as="geometry" />
          </mxCell>
        </UserObject>
        <UserObject label="&lt;ul style=&quot;margin: 0px; padding-left: 10px;list-style-position: inside; list-style-type:disc&quot;&gt;&lt;li style=&quot;text-align:left;color:#000000;font-size:13px;&quot;&gt;&lt;span style=&quot;margin-left: 0px;margin-top: -2px;&quot;&gt;&lt;span style=&quot;font-size:13px;color:#000000;&quot;&gt;Operations is another crucial step, and periodic maintenance is a regular function of operations teams. Monitoring is another important part of this process continuous monitoring tools ensure your security systems are performing as intended.&lt;/span&gt;&lt;/span&gt;&lt;/li&gt;&lt;/ul&gt;" lucidchartObjectId="0EFD-91THkSd" id="kyKSu3ex7JQ9LC0qElmS-13">
          <mxCell style="html=1;overflow=block;blockSpacing=1;whiteSpace=wrap;fontSize=13;spacing=3.8;strokeOpacity=0;fillOpacity=0;rounded=1;absoluteArcSize=1;arcSize=9;fillColor=#ffffff;strokeWidth=2.3;" vertex="1" parent="1">
            <mxGeometry x="134" y="492" width="375" height="78" as="geometry" />
          </mxCell>
        </UserObject>
        <UserObject label="&lt;ul style=&quot;margin: 0px; padding-left: 10px;list-style-position: inside; list-style-type:disc&quot;&gt;&lt;li style=&quot;text-align:left;color:#000000;font-size:13px;&quot;&gt;&lt;span style=&quot;margin-left: 0px;margin-top: -2px;&quot;&gt;&lt;span style=&quot;font-size:13px;color:#000000;&quot;&gt;The next step is testing, wherein the robust automated testing framework inculcates strong testing practices to the pipeline.&lt;/span&gt;&lt;/span&gt;&lt;/li&gt;&lt;/ul&gt;" lucidchartObjectId="NKFDZA8e67dq" id="kyKSu3ex7JQ9LC0qElmS-14">
          <mxCell style="html=1;overflow=block;blockSpacing=1;whiteSpace=wrap;fontSize=13;spacing=3.8;strokeOpacity=0;fillOpacity=0;rounded=1;absoluteArcSize=1;arcSize=9;fillColor=#ffffff;strokeWidth=2.3;" vertex="1" parent="1">
            <mxGeometry x="885" y="492" width="345" height="48" as="geometry" />
          </mxCell>
        </UserObject>
        <UserObject label="&lt;ul style=&quot;margin: 0px; padding-left: 10px;list-style-position: inside; list-style-type:disc&quot;&gt;&lt;li style=&quot;text-align:left;color:#000000;font-size:13px;&quot;&gt;&lt;span style=&quot;margin-left: 0px;margin-top: -2px;&quot;&gt;&lt;span style=&quot;font-size:13px;color:#000000;&quot;&gt;Deployment is usually carried out through IaC tools, as they automate the process and accelerate the pace of software delivery. it&#39;s vital to continue overseeing and managing the security state&lt;/span&gt;&lt;/span&gt;&lt;/li&gt;&lt;/ul&gt;" lucidchartObjectId="cNFDNbrB4MXx" id="kyKSu3ex7JQ9LC0qElmS-15">
          <mxCell style="html=1;overflow=block;blockSpacing=1;whiteSpace=wrap;fontSize=13;spacing=3.8;strokeOpacity=0;fillOpacity=0;rounded=1;absoluteArcSize=1;arcSize=9;fillColor=#ffffff;strokeWidth=2.3;" vertex="1" parent="1">
            <mxGeometry x="510" y="493" width="375" height="71" as="geometry" />
          </mxCell>
        </UserObject>
        <UserObject label="" lucidchartObjectId="6WFDiBI3NfeW" id="kyKSu3ex7JQ9LC0qElmS-16">
          <mxCell style="html=1;jettySize=18;whiteSpace=wrap;fontSize=13;strokeColor=#3aa6dd;strokeOpacity=100;dashed=1;fixDash=1;dashPattern=10 5 1 5 1 5;strokeWidth=1.5;rounded=1;arcSize=12;edgeStyle=orthogonalEdgeStyle;curved=1;startArrow=none;endArrow=open;exitX=0;exitY=0.5;exitPerimeter=0;entryX=0;entryY=0.5;entryPerimeter=0;" edge="1" parent="1" source="kyKSu3ex7JQ9LC0qElmS-10" target="kyKSu3ex7JQ9LC0qElmS-1">
            <mxGeometry width="100" height="100" relative="1" as="geometry">
              <Array as="points">
                <mxPoint x="252" y="615" />
                <mxPoint x="72" y="419" />
                <mxPoint x="252" y="225" />
              </Array>
            </mxGeometry>
          </mxCell>
        </UserObject>
        <UserObject label="" lucidchartObjectId="NXFDG8p3rODO" id="kyKSu3ex7JQ9LC0qElmS-17">
          <mxCell style="html=1;jettySize=18;whiteSpace=wrap;fontSize=13;strokeColor=#3aa6dd;strokeOpacity=100;dashed=1;fixDash=1;dashPattern=10 5 1 5 1 5;strokeWidth=1.5;rounded=1;arcSize=12;edgeStyle=orthogonalEdgeStyle;startArrow=none;endArrow=open;exitX=0;exitY=0.5;exitPerimeter=0;entryX=1;entryY=0.5;entryPerimeter=0;" edge="1" parent="1" source="kyKSu3ex7JQ9LC0qElmS-11" target="kyKSu3ex7JQ9LC0qElmS-10">
            <mxGeometry width="100" height="100" relative="1" as="geometry">
              <Array as="points" />
            </mxGeometry>
          </mxCell>
        </UserObject>
        <UserObject label="" lucidchartObjectId="VXFD8sau_TZt" id="kyKSu3ex7JQ9LC0qElmS-18">
          <mxCell style="html=1;jettySize=18;whiteSpace=wrap;fontSize=13;strokeColor=#3aa6dd;strokeOpacity=100;dashed=1;fixDash=1;dashPattern=10 5 1 5 1 5;strokeWidth=1.5;rounded=1;arcSize=12;edgeStyle=orthogonalEdgeStyle;startArrow=none;endArrow=open;exitX=0;exitY=0.5;exitPerimeter=0;entryX=1;entryY=0.5;entryPerimeter=0;" edge="1" parent="1" source="kyKSu3ex7JQ9LC0qElmS-12" target="kyKSu3ex7JQ9LC0qElmS-11">
            <mxGeometry width="100" height="100" relative="1" as="geometry">
              <Array as="points" />
            </mxGeometry>
          </mxCell>
        </UserObject>
        <UserObject label="" lucidchartObjectId="2XFD6L1klhKC" id="kyKSu3ex7JQ9LC0qElmS-19">
          <mxCell style="html=1;jettySize=18;whiteSpace=wrap;fontSize=13;strokeColor=#3aa6dd;strokeOpacity=100;dashed=1;fixDash=1;dashPattern=10 5 1 5 1 5;strokeWidth=1.5;rounded=1;arcSize=12;edgeStyle=orthogonalEdgeStyle;curved=1;startArrow=none;endArrow=open;exitX=1;exitY=0.5;exitPerimeter=0;entryX=1;entryY=0.533;entryPerimeter=0;" edge="1" parent="1" source="kyKSu3ex7JQ9LC0qElmS-3" target="kyKSu3ex7JQ9LC0qElmS-12">
            <mxGeometry width="100" height="100" relative="1" as="geometry">
              <Array as="points">
                <mxPoint x="1111" y="225" />
                <mxPoint x="1274" y="410" />
                <mxPoint x="1111" y="618" />
              </Array>
            </mxGeometry>
          </mxCell>
        </UserObject>
        <UserObject label="" lucidchartObjectId="eYFDz~z_-NT." id="kyKSu3ex7JQ9LC0qElmS-20">
          <mxCell style="html=1;jettySize=18;whiteSpace=wrap;fontSize=13;strokeColor=#3aa6dd;strokeOpacity=100;dashed=1;fixDash=1;dashPattern=10 5 1 5 1 5;strokeWidth=1.5;rounded=1;arcSize=12;edgeStyle=orthogonalEdgeStyle;startArrow=none;endArrow=open;exitX=1;exitY=0.5;exitPerimeter=0;entryX=0;entryY=0.5;entryPerimeter=0;" edge="1" parent="1" source="kyKSu3ex7JQ9LC0qElmS-1" target="kyKSu3ex7JQ9LC0qElmS-2">
            <mxGeometry width="100" height="100" relative="1" as="geometry">
              <Array as="points" />
            </mxGeometry>
          </mxCell>
        </UserObject>
        <UserObject label="" lucidchartObjectId="iYFDme4KWIut" id="kyKSu3ex7JQ9LC0qElmS-21">
          <mxCell style="html=1;jettySize=18;whiteSpace=wrap;fontSize=13;strokeColor=#3aa6dd;strokeOpacity=100;dashed=1;fixDash=1;dashPattern=10 5 1 5 1 5;strokeWidth=1.5;rounded=1;arcSize=12;edgeStyle=orthogonalEdgeStyle;startArrow=none;endArrow=open;exitX=1;exitY=0.5;exitPerimeter=0;entryX=0;entryY=0.5;entryPerimeter=0;" edge="1" parent="1" source="kyKSu3ex7JQ9LC0qElmS-2" target="kyKSu3ex7JQ9LC0qElmS-3">
            <mxGeometry width="100" height="100" relative="1" as="geometry">
              <Array as="points" />
            </mxGeometry>
          </mxCell>
        </UserObject>
        <UserObject label="Secure SDLC" lucidchartObjectId="37FD_It3V4H3" id="kyKSu3ex7JQ9LC0qElmS-22">
          <mxCell style="html=1;overflow=block;blockSpacing=1;whiteSpace=wrap;rounded=1;arcSize=50;fontSize=15;fontFamily=Kirsty;fontColor=#333333;spacing=3.8;strokeColor=#834187;strokeOpacity=100;strokeWidth=2.3;" vertex="1" parent="1">
            <mxGeometry x="210" y="105" width="75" height="45" as="geometry" />
          </mxCell>
        </UserObject>
        <UserObject label="Threat Model" lucidchartObjectId="l8FD8ffx.wy7" id="kyKSu3ex7JQ9LC0qElmS-23">
          <mxCell style="html=1;overflow=block;blockSpacing=1;whiteSpace=wrap;rounded=1;arcSize=50;fontSize=15;fontFamily=Kirsty;fontColor=#333333;spacing=3.8;strokeColor=#834187;strokeOpacity=100;strokeWidth=2.3;" vertex="1" parent="1">
            <mxGeometry x="285" y="53" width="75" height="45" as="geometry" />
          </mxCell>
        </UserObject>
        <UserObject label="Secure Coding Standards" lucidchartObjectId="U-FDR3wi7cFM" id="kyKSu3ex7JQ9LC0qElmS-24">
          <mxCell style="html=1;overflow=block;blockSpacing=1;whiteSpace=wrap;rounded=1;arcSize=50;fontSize=15;fontFamily=Kirsty;fontColor=#333333;spacing=3.8;strokeColor=#834187;strokeOpacity=100;strokeWidth=2.3;" vertex="1" parent="1">
            <mxGeometry x="525" y="98" width="105" height="59" as="geometry" />
          </mxCell>
        </UserObject>
        <UserObject label="Code Authentication" lucidchartObjectId="k_FDejHyGGz1" id="kyKSu3ex7JQ9LC0qElmS-25">
          <mxCell style="html=1;overflow=block;blockSpacing=1;whiteSpace=wrap;rounded=1;arcSize=50;fontSize=15;fontFamily=Kirsty;fontColor=#333333;spacing=3.8;strokeColor=#834187;strokeOpacity=100;strokeWidth=2.3;" vertex="1" parent="1">
            <mxGeometry x="615" y="16" width="105" height="59" as="geometry" />
          </mxCell>
        </UserObject>
        <UserObject label="IDE Security plugins" lucidchartObjectId="p~FDsyfKF0yC" id="kyKSu3ex7JQ9LC0qElmS-26">
          <mxCell style="html=1;overflow=block;blockSpacing=1;whiteSpace=wrap;rounded=1;arcSize=50;fontSize=15;fontFamily=Kirsty;fontColor=#333333;spacing=3.8;strokeColor=#834187;strokeOpacity=100;strokeWidth=2.3;" vertex="1" parent="1">
            <mxGeometry x="735" y="75" width="105" height="59" as="geometry" />
          </mxCell>
        </UserObject>
        <UserObject label="Policies" lucidchartObjectId="JdGDvRd9KGEL" id="kyKSu3ex7JQ9LC0qElmS-27">
          <mxCell style="html=1;overflow=block;blockSpacing=1;whiteSpace=wrap;rounded=1;arcSize=50;fontSize=15;fontFamily=Kirsty;fontColor=#333333;spacing=3.8;strokeColor=#834187;strokeOpacity=100;strokeWidth=2.3;" vertex="1" parent="1">
            <mxGeometry x="360" y="112" width="75" height="45" as="geometry" />
          </mxCell>
        </UserObject>
        <UserObject label="" lucidchartObjectId="ZeGDNtL-rQZ5" id="kyKSu3ex7JQ9LC0qElmS-28">
          <mxCell style="html=1;jettySize=18;whiteSpace=wrap;fontSize=13;strokeColor=#834187;strokeOpacity=100;strokeWidth=1.5;rounded=1;arcSize=12;edgeStyle=orthogonalEdgeStyle;curved=1;startArrow=none;endArrow=none;exitX=0.5;exitY=0;exitPerimeter=0;entryX=0.5;entryY=1.025;entryPerimeter=0;" edge="1" parent="1" source="kyKSu3ex7JQ9LC0qElmS-1" target="kyKSu3ex7JQ9LC0qElmS-22">
            <mxGeometry width="100" height="100" relative="1" as="geometry">
              <Array as="points">
                <mxPoint x="334" y="180" />
                <mxPoint x="279" y="168" />
                <mxPoint x="238" y="172" />
                <mxPoint x="248" y="151" />
              </Array>
            </mxGeometry>
          </mxCell>
        </UserObject>
        <UserObject label="" lucidchartObjectId="gfGD4n9xpni2" id="kyKSu3ex7JQ9LC0qElmS-29">
          <mxCell style="html=1;jettySize=18;whiteSpace=wrap;fontSize=13;strokeColor=#834187;strokeOpacity=100;strokeWidth=1.5;rounded=1;arcSize=12;edgeStyle=orthogonalEdgeStyle;curved=1;startArrow=none;endArrow=none;exitX=0.5;exitY=0;exitPerimeter=0;entryX=0.5;entryY=1.025;entryPerimeter=0;" edge="1" parent="1" source="kyKSu3ex7JQ9LC0qElmS-1" target="kyKSu3ex7JQ9LC0qElmS-23">
            <mxGeometry width="100" height="100" relative="1" as="geometry">
              <Array as="points">
                <mxPoint x="334" y="180" />
                <mxPoint x="313" y="137" />
                <mxPoint x="323" y="99" />
              </Array>
            </mxGeometry>
          </mxCell>
        </UserObject>
        <UserObject label="" lucidchartObjectId="MfGD8U6sNKCW" id="kyKSu3ex7JQ9LC0qElmS-30">
          <mxCell style="html=1;jettySize=18;whiteSpace=wrap;fontSize=13;strokeColor=#834187;strokeOpacity=100;strokeWidth=1.5;rounded=1;arcSize=12;edgeStyle=orthogonalEdgeStyle;curved=1;startArrow=none;endArrow=none;exitX=0.5;exitY=0;exitPerimeter=0;entryX=0.5;entryY=1.025;entryPerimeter=0;" edge="1" parent="1" source="kyKSu3ex7JQ9LC0qElmS-1" target="kyKSu3ex7JQ9LC0qElmS-27">
            <mxGeometry width="100" height="100" relative="1" as="geometry">
              <Array as="points" />
            </mxGeometry>
          </mxCell>
        </UserObject>
        <UserObject label="" lucidchartObjectId="UgGDvZP5kLx0" id="kyKSu3ex7JQ9LC0qElmS-31">
          <mxCell style="html=1;jettySize=18;whiteSpace=wrap;fontSize=13;strokeColor=#834187;strokeOpacity=100;strokeWidth=1.5;rounded=1;arcSize=12;edgeStyle=orthogonalEdgeStyle;curved=1;startArrow=none;endArrow=none;exitX=0.5;exitY=0;exitPerimeter=0;entryX=0.5;entryY=1.019;entryPerimeter=0;" edge="1" parent="1" source="kyKSu3ex7JQ9LC0qElmS-2" target="kyKSu3ex7JQ9LC0qElmS-24">
            <mxGeometry width="100" height="100" relative="1" as="geometry">
              <Array as="points">
                <mxPoint x="682" y="180" />
                <mxPoint x="626" y="173" />
                <mxPoint x="577" y="158" />
              </Array>
            </mxGeometry>
          </mxCell>
        </UserObject>
        <UserObject label="" lucidchartObjectId="7gGDtAVZgeZz" id="kyKSu3ex7JQ9LC0qElmS-32">
          <mxCell style="html=1;jettySize=18;whiteSpace=wrap;fontSize=13;strokeColor=#834187;strokeOpacity=100;strokeWidth=1.5;rounded=1;arcSize=12;edgeStyle=orthogonalEdgeStyle;curved=1;startArrow=none;endArrow=none;exitX=0.5;exitY=0;exitPerimeter=0;entryX=0.5;entryY=1.019;entryPerimeter=0;" edge="1" parent="1" source="kyKSu3ex7JQ9LC0qElmS-2" target="kyKSu3ex7JQ9LC0qElmS-25">
            <mxGeometry width="100" height="100" relative="1" as="geometry">
              <Array as="points">
                <mxPoint x="682" y="180" />
                <mxPoint x="689" y="127" />
                <mxPoint x="668" y="76" />
              </Array>
            </mxGeometry>
          </mxCell>
        </UserObject>
        <UserObject label="" lucidchartObjectId="ehGDCgNliuye" id="kyKSu3ex7JQ9LC0qElmS-33">
          <mxCell style="html=1;jettySize=18;whiteSpace=wrap;fontSize=13;strokeColor=#834187;strokeOpacity=100;strokeWidth=1.5;rounded=1;arcSize=12;edgeStyle=orthogonalEdgeStyle;curved=1;startArrow=none;endArrow=none;exitX=0.5;exitY=0;exitPerimeter=0;entryX=0.5;entryY=1.019;entryPerimeter=0;" edge="1" parent="1" source="kyKSu3ex7JQ9LC0qElmS-2" target="kyKSu3ex7JQ9LC0qElmS-26">
            <mxGeometry width="100" height="100" relative="1" as="geometry">
              <Array as="points">
                <mxPoint x="682" y="180" />
                <mxPoint x="768" y="170" />
                <mxPoint x="788" y="135" />
              </Array>
            </mxGeometry>
          </mxCell>
        </UserObject>
        <UserObject label="SAST" lucidchartObjectId="EiGDvXmrsw2l" id="kyKSu3ex7JQ9LC0qElmS-34">
          <mxCell style="html=1;overflow=block;blockSpacing=1;whiteSpace=wrap;rounded=1;arcSize=50;fontSize=15;fontFamily=Kirsty;fontColor=#333333;spacing=3.8;strokeColor=#834187;strokeOpacity=100;strokeWidth=2.3;" vertex="1" parent="1">
            <mxGeometry x="915" y="112" width="75" height="52" as="geometry" />
          </mxCell>
        </UserObject>
        <UserObject label="IAST" lucidchartObjectId="TiGDVa_y7XXz" id="kyKSu3ex7JQ9LC0qElmS-35">
          <mxCell style="html=1;overflow=block;blockSpacing=1;whiteSpace=wrap;rounded=1;arcSize=50;fontSize=15;fontFamily=Kirsty;fontColor=#333333;spacing=3.8;strokeColor=#834187;strokeOpacity=100;strokeWidth=2.3;" vertex="1" parent="1">
            <mxGeometry x="948" y="30" width="75" height="52" as="geometry" />
          </mxCell>
        </UserObject>
        <UserObject label="" lucidchartObjectId="2iGDuQAYAceo" id="kyKSu3ex7JQ9LC0qElmS-36">
          <mxCell style="html=1;jettySize=18;whiteSpace=wrap;fontSize=13;strokeColor=#834187;strokeOpacity=100;strokeWidth=1.5;rounded=1;arcSize=12;edgeStyle=orthogonalEdgeStyle;curved=1;startArrow=none;endArrow=none;exitX=0.5;exitY=0;exitPerimeter=0;entryX=0.5;entryY=1.022;entryPerimeter=0;" edge="1" parent="1" source="kyKSu3ex7JQ9LC0qElmS-3" target="kyKSu3ex7JQ9LC0qElmS-34">
            <mxGeometry width="100" height="100" relative="1" as="geometry">
              <Array as="points">
                <mxPoint x="1030" y="180" />
                <mxPoint x="983" y="176" />
                <mxPoint x="953" y="165" />
              </Array>
            </mxGeometry>
          </mxCell>
        </UserObject>
        <UserObject label="" lucidchartObjectId="ejGDuIKNHR~m" id="kyKSu3ex7JQ9LC0qElmS-37">
          <mxCell style="html=1;jettySize=18;whiteSpace=wrap;fontSize=13;strokeColor=#834187;strokeOpacity=100;strokeWidth=1.5;rounded=1;arcSize=12;edgeStyle=orthogonalEdgeStyle;curved=1;startArrow=none;endArrow=none;exitX=0.5;exitY=0;exitPerimeter=0;entryX=0.5;entryY=1.022;entryPerimeter=0;" edge="1" parent="1" source="kyKSu3ex7JQ9LC0qElmS-3" target="kyKSu3ex7JQ9LC0qElmS-35">
            <mxGeometry width="100" height="100" relative="1" as="geometry">
              <Array as="points">
                <mxPoint x="1030" y="180" />
                <mxPoint x="1003" y="137" />
                <mxPoint x="985" y="83" />
              </Array>
            </mxGeometry>
          </mxCell>
        </UserObject>
        <UserObject label="SCA" lucidchartObjectId="~jGDnMBaXj77" id="kyKSu3ex7JQ9LC0qElmS-38">
          <mxCell style="html=1;overflow=block;blockSpacing=1;whiteSpace=wrap;rounded=1;arcSize=50;fontSize=15;fontFamily=Kirsty;fontColor=#333333;spacing=3.8;strokeColor=#834187;strokeOpacity=100;strokeWidth=2.3;" vertex="1" parent="1">
            <mxGeometry x="1125" y="98" width="75" height="52" as="geometry" />
          </mxCell>
        </UserObject>
        <UserObject label="" lucidchartObjectId="qkGDKS-2eMcI" id="kyKSu3ex7JQ9LC0qElmS-39">
          <mxCell style="html=1;jettySize=18;whiteSpace=wrap;fontSize=13;strokeColor=#834187;strokeOpacity=100;strokeWidth=1.5;rounded=1;arcSize=12;edgeStyle=orthogonalEdgeStyle;curved=1;startArrow=none;endArrow=none;exitX=0.5;exitY=0;exitPerimeter=0;entryX=0.5;entryY=1.022;entryPerimeter=0;" edge="1" parent="1" source="kyKSu3ex7JQ9LC0qElmS-3" target="kyKSu3ex7JQ9LC0qElmS-38">
            <mxGeometry width="100" height="100" relative="1" as="geometry">
              <Array as="points">
                <mxPoint x="1030" y="180" />
                <mxPoint x="1117" y="174" />
                <mxPoint x="1163" y="151" />
              </Array>
            </mxGeometry>
          </mxCell>
        </UserObject>
        <UserObject label="Dependency Management" lucidchartObjectId="alGDWqJToRII" id="kyKSu3ex7JQ9LC0qElmS-40">
          <mxCell style="html=1;overflow=block;blockSpacing=1;whiteSpace=wrap;rounded=1;arcSize=50;fontSize=15;fontFamily=Kirsty;fontColor=#333333;spacing=3.8;strokeColor=#834187;strokeOpacity=100;strokeWidth=2.3;" vertex="1" parent="1">
            <mxGeometry x="1035" y="39" width="105" height="59" as="geometry" />
          </mxCell>
        </UserObject>
        <UserObject label="" lucidchartObjectId="QlGDolKeaCv0" id="kyKSu3ex7JQ9LC0qElmS-41">
          <mxCell style="html=1;jettySize=18;whiteSpace=wrap;fontSize=13;strokeColor=#834187;strokeOpacity=100;strokeWidth=1.5;rounded=1;arcSize=12;edgeStyle=orthogonalEdgeStyle;curved=1;startArrow=none;endArrow=none;exitX=0.5;exitY=0;exitPerimeter=0;entryX=0.5;entryY=1.019;entryPerimeter=0;" edge="1" parent="1" source="kyKSu3ex7JQ9LC0qElmS-3" target="kyKSu3ex7JQ9LC0qElmS-40">
            <mxGeometry width="100" height="100" relative="1" as="geometry">
              <Array as="points">
                <mxPoint x="1030" y="180" />
                <mxPoint x="1072" y="152" />
                <mxPoint x="1088" y="105" />
              </Array>
            </mxGeometry>
          </mxCell>
        </UserObject>
        <UserObject label="IAST" lucidchartObjectId="bmGDLAnR168S" id="kyKSu3ex7JQ9LC0qElmS-42">
          <mxCell style="html=1;overflow=block;blockSpacing=1;whiteSpace=wrap;rounded=1;arcSize=50;fontSize=15;fontFamily=Kirsty;fontColor=#333333;spacing=3.8;strokeColor=#834187;strokeOpacity=100;strokeWidth=2.3;" vertex="1" parent="1">
            <mxGeometry x="885" y="705" width="75" height="52" as="geometry" />
          </mxCell>
        </UserObject>
        <UserObject label="DAST" lucidchartObjectId="jmGDwHl0iOU4" id="kyKSu3ex7JQ9LC0qElmS-43">
          <mxCell style="html=1;overflow=block;blockSpacing=1;whiteSpace=wrap;rounded=1;arcSize=50;fontSize=15;fontFamily=Kirsty;fontColor=#333333;spacing=3.8;strokeColor=#834187;strokeOpacity=100;strokeWidth=2.3;" vertex="1" parent="1">
            <mxGeometry x="960" y="765" width="75" height="52" as="geometry" />
          </mxCell>
        </UserObject>
        <UserObject label="" lucidchartObjectId="umGDEvQ4EQWG" id="kyKSu3ex7JQ9LC0qElmS-44">
          <mxCell style="html=1;jettySize=18;whiteSpace=wrap;fontSize=13;strokeColor=#834187;strokeOpacity=100;strokeWidth=1.5;rounded=1;arcSize=12;edgeStyle=orthogonalEdgeStyle;curved=1;startArrow=none;endArrow=none;exitX=0.5;exitY=1;exitPerimeter=0;entryX=0.5;entryY=-0.022;entryPerimeter=0;" edge="1" parent="1" source="kyKSu3ex7JQ9LC0qElmS-12" target="kyKSu3ex7JQ9LC0qElmS-42">
            <mxGeometry width="100" height="100" relative="1" as="geometry">
              <Array as="points">
                <mxPoint x="1030" y="660" />
                <mxPoint x="951" y="671" />
                <mxPoint x="923" y="704" />
              </Array>
            </mxGeometry>
          </mxCell>
        </UserObject>
        <UserObject label="" lucidchartObjectId="ymGDa7E3hkD." id="kyKSu3ex7JQ9LC0qElmS-45">
          <mxCell style="html=1;jettySize=18;whiteSpace=wrap;fontSize=13;strokeColor=#834187;strokeOpacity=100;strokeWidth=1.5;rounded=1;arcSize=12;edgeStyle=orthogonalEdgeStyle;curved=1;startArrow=none;endArrow=none;exitX=0.5;exitY=1;exitPerimeter=0;entryX=0.5;entryY=-0.022;entryPerimeter=0;" edge="1" parent="1" source="kyKSu3ex7JQ9LC0qElmS-12" target="kyKSu3ex7JQ9LC0qElmS-43">
            <mxGeometry width="100" height="100" relative="1" as="geometry">
              <Array as="points">
                <mxPoint x="1030" y="660" />
                <mxPoint x="975" y="711" />
                <mxPoint x="998" y="764" />
              </Array>
            </mxGeometry>
          </mxCell>
        </UserObject>
        <UserObject label="Pentest" lucidchartObjectId="7mGDqkcSDHl9" id="kyKSu3ex7JQ9LC0qElmS-46">
          <mxCell style="html=1;overflow=block;blockSpacing=1;whiteSpace=wrap;rounded=1;arcSize=50;fontSize=15;fontFamily=Kirsty;fontColor=#333333;spacing=3.8;strokeColor=#834187;strokeOpacity=100;strokeWidth=2.3;" vertex="1" parent="1">
            <mxGeometry x="1035" y="720" width="75" height="52" as="geometry" />
          </mxCell>
        </UserObject>
        <UserObject label="" lucidchartObjectId="nnGD2-bxjx.M" id="kyKSu3ex7JQ9LC0qElmS-47">
          <mxCell style="html=1;jettySize=18;whiteSpace=wrap;fontSize=13;strokeColor=#834187;strokeOpacity=100;strokeWidth=1.5;rounded=1;arcSize=12;edgeStyle=orthogonalEdgeStyle;curved=1;startArrow=none;endArrow=none;exitX=0.5;exitY=1;exitPerimeter=0;entryX=0.5;entryY=-0.022;entryPerimeter=0;" edge="1" parent="1" source="kyKSu3ex7JQ9LC0qElmS-12" target="kyKSu3ex7JQ9LC0qElmS-46">
            <mxGeometry width="100" height="100" relative="1" as="geometry">
              <Array as="points">
                <mxPoint x="1030" y="660" />
                <mxPoint x="1068" y="686" />
                <mxPoint x="1073" y="719" />
              </Array>
            </mxGeometry>
          </mxCell>
        </UserObject>
        <UserObject label="Hardening" lucidchartObjectId="kqGDLdLzj-9Y" id="kyKSu3ex7JQ9LC0qElmS-48">
          <mxCell style="html=1;overflow=block;blockSpacing=1;whiteSpace=wrap;rounded=1;arcSize=50;fontSize=15;fontFamily=Kirsty;fontColor=#333333;spacing=3.8;strokeColor=#834187;strokeOpacity=100;strokeWidth=2.3;" vertex="1" parent="1">
            <mxGeometry x="555" y="720" width="94" height="52" as="geometry" />
          </mxCell>
        </UserObject>
        <UserObject label="Config tests" lucidchartObjectId="LqGDTo9UGp69" id="kyKSu3ex7JQ9LC0qElmS-49">
          <mxCell style="html=1;overflow=block;blockSpacing=1;whiteSpace=wrap;rounded=1;arcSize=50;fontSize=15;fontFamily=Kirsty;fontColor=#333333;spacing=3.8;strokeColor=#834187;strokeOpacity=100;strokeWidth=2.3;" vertex="1" parent="1">
            <mxGeometry x="705" y="694" width="90" height="52" as="geometry" />
          </mxCell>
        </UserObject>
        <UserObject label="Infrastructure scanning" lucidchartObjectId="4rGDdyFopCL8" id="kyKSu3ex7JQ9LC0qElmS-50">
          <mxCell style="html=1;overflow=block;blockSpacing=1;whiteSpace=wrap;rounded=1;arcSize=50;fontSize=15;fontFamily=Kirsty;fontColor=#333333;spacing=3.8;strokeColor=#834187;strokeOpacity=100;strokeWidth=2.3;" vertex="1" parent="1">
            <mxGeometry x="662" y="780" width="102" height="53" as="geometry" />
          </mxCell>
        </UserObject>
        <UserObject label="" lucidchartObjectId="rsGDNN~kxsc3" id="kyKSu3ex7JQ9LC0qElmS-51">
          <mxCell style="html=1;jettySize=18;whiteSpace=wrap;fontSize=13;strokeColor=#834187;strokeOpacity=100;strokeWidth=1.5;rounded=1;arcSize=12;edgeStyle=orthogonalEdgeStyle;curved=1;startArrow=none;endArrow=none;exitX=0.5;exitY=1;exitPerimeter=0;entryX=0.5;entryY=-0.022;entryPerimeter=0;" edge="1" parent="1" source="kyKSu3ex7JQ9LC0qElmS-11" target="kyKSu3ex7JQ9LC0qElmS-48">
            <mxGeometry width="100" height="100" relative="1" as="geometry">
              <Array as="points">
                <mxPoint x="682" y="660" />
                <mxPoint x="616" y="683" />
                <mxPoint x="602" y="719" />
              </Array>
            </mxGeometry>
          </mxCell>
        </UserObject>
        <UserObject label="" lucidchartObjectId="EsGDw2o8NVZZ" id="kyKSu3ex7JQ9LC0qElmS-52">
          <mxCell style="html=1;jettySize=18;whiteSpace=wrap;fontSize=13;strokeColor=#834187;strokeOpacity=100;strokeWidth=1.5;rounded=1;arcSize=12;edgeStyle=orthogonalEdgeStyle;curved=1;startArrow=none;endArrow=none;exitX=0.5;exitY=1;exitPerimeter=0;entryX=0.5;entryY=-0.022;entryPerimeter=0;" edge="1" parent="1" source="kyKSu3ex7JQ9LC0qElmS-11" target="kyKSu3ex7JQ9LC0qElmS-49">
            <mxGeometry width="100" height="100" relative="1" as="geometry">
              <Array as="points">
                <mxPoint x="682" y="660" />
                <mxPoint x="730" y="669" />
                <mxPoint x="750" y="693" />
              </Array>
            </mxGeometry>
          </mxCell>
        </UserObject>
        <UserObject label="" lucidchartObjectId="SsGDbXin2Bnt" id="kyKSu3ex7JQ9LC0qElmS-53">
          <mxCell style="html=1;jettySize=18;whiteSpace=wrap;fontSize=13;strokeColor=#834187;strokeOpacity=100;strokeWidth=1.5;rounded=1;arcSize=12;edgeStyle=orthogonalEdgeStyle;curved=1;startArrow=none;endArrow=none;exitX=0.5;exitY=1;exitPerimeter=0;entryX=0.5;entryY=-0.021;entryPerimeter=0;" edge="1" parent="1" source="kyKSu3ex7JQ9LC0qElmS-11" target="kyKSu3ex7JQ9LC0qElmS-50">
            <mxGeometry width="100" height="100" relative="1" as="geometry">
              <Array as="points">
                <mxPoint x="682" y="660" />
                <mxPoint x="681" y="723" />
                <mxPoint x="713" y="779" />
              </Array>
            </mxGeometry>
          </mxCell>
        </UserObject>
        <UserObject label="Continous Monitoring" lucidchartObjectId="4tGDqeeCZbxE" id="kyKSu3ex7JQ9LC0qElmS-54">
          <mxCell style="html=1;overflow=block;blockSpacing=1;whiteSpace=wrap;rounded=1;arcSize=50;fontSize=15;fontFamily=Kirsty;fontColor=#333333;spacing=3.8;strokeColor=#834187;strokeOpacity=100;strokeWidth=2.3;" vertex="1" parent="1">
            <mxGeometry x="150" y="687" width="94" height="52" as="geometry" />
          </mxCell>
        </UserObject>
        <UserObject label="Audit" lucidchartObjectId="8tGDiQPBnGqx" id="kyKSu3ex7JQ9LC0qElmS-55">
          <mxCell style="html=1;overflow=block;blockSpacing=1;whiteSpace=wrap;rounded=1;arcSize=50;fontSize=15;fontFamily=Kirsty;fontColor=#333333;spacing=3.8;strokeColor=#834187;strokeOpacity=100;strokeWidth=2.3;" vertex="1" parent="1">
            <mxGeometry x="210" y="761" width="60" height="44" as="geometry" />
          </mxCell>
        </UserObject>
        <UserObject label="RASP" lucidchartObjectId="fwGDV4XMfAVx" id="kyKSu3ex7JQ9LC0qElmS-56">
          <mxCell style="html=1;overflow=block;blockSpacing=1;whiteSpace=wrap;rounded=1;arcSize=50;fontSize=15;fontFamily=Kirsty;fontColor=#333333;spacing=3.8;strokeColor=#834187;strokeOpacity=100;strokeWidth=2.3;" vertex="1" parent="1">
            <mxGeometry x="288" y="795" width="64" height="44" as="geometry" />
          </mxCell>
        </UserObject>
        <UserObject label="Pentesting" lucidchartObjectId="YwGDqLFwqQiO" id="kyKSu3ex7JQ9LC0qElmS-57">
          <mxCell style="html=1;overflow=block;blockSpacing=1;whiteSpace=wrap;rounded=1;arcSize=50;fontSize=15;fontFamily=Kirsty;fontColor=#333333;spacing=3.8;strokeColor=#834187;strokeOpacity=100;strokeWidth=2.3;" vertex="1" parent="1">
            <mxGeometry x="371" y="757" width="86" height="48" as="geometry" />
          </mxCell>
        </UserObject>
        <UserObject label="Patch" lucidchartObjectId="JxGDCM8eTocr" id="kyKSu3ex7JQ9LC0qElmS-58">
          <mxCell style="html=1;overflow=block;blockSpacing=1;whiteSpace=wrap;rounded=1;arcSize=50;fontSize=15;fontFamily=Kirsty;fontColor=#333333;spacing=3.8;strokeColor=#834187;strokeOpacity=100;strokeWidth=2.3;" vertex="1" parent="1">
            <mxGeometry x="393" y="687" width="64" height="44" as="geometry" />
          </mxCell>
        </UserObject>
        <UserObject label="" lucidchartObjectId="WxGDCzObySu." id="kyKSu3ex7JQ9LC0qElmS-59">
          <mxCell style="html=1;jettySize=18;whiteSpace=wrap;fontSize=13;strokeColor=#834187;strokeOpacity=100;strokeWidth=1.5;rounded=1;arcSize=12;edgeStyle=orthogonalEdgeStyle;curved=1;startArrow=none;endArrow=none;exitX=0.5;exitY=1;exitPerimeter=0;entryX=1.012;entryY=0.5;entryPerimeter=0;" edge="1" parent="1" source="kyKSu3ex7JQ9LC0qElmS-10" target="kyKSu3ex7JQ9LC0qElmS-54">
            <mxGeometry width="100" height="100" relative="1" as="geometry">
              <Array as="points">
                <mxPoint x="334" y="660" />
                <mxPoint x="277" y="686" />
                <mxPoint x="245" y="712" />
              </Array>
            </mxGeometry>
          </mxCell>
        </UserObject>
        <UserObject label="" lucidchartObjectId="UzGDJsqFM7Cu" id="kyKSu3ex7JQ9LC0qElmS-60">
          <mxCell style="html=1;jettySize=18;whiteSpace=wrap;fontSize=13;strokeColor=#834187;strokeOpacity=100;strokeWidth=1.5;rounded=1;arcSize=12;edgeStyle=orthogonalEdgeStyle;curved=1;startArrow=none;endArrow=none;exitX=0.5;exitY=1;exitPerimeter=0;entryX=-0.018;entryY=0.5;entryPerimeter=0;" edge="1" parent="1" source="kyKSu3ex7JQ9LC0qElmS-10" target="kyKSu3ex7JQ9LC0qElmS-58">
            <mxGeometry width="100" height="100" relative="1" as="geometry">
              <Array as="points">
                <mxPoint x="334" y="660" />
                <mxPoint x="348" y="704" />
                <mxPoint x="392" y="708" />
              </Array>
            </mxGeometry>
          </mxCell>
        </UserObject>
      </root>
    </mxGraphModel>
  </diagram>
</mxfile>
